# https://github.com/mikedh/trimesh
mtllib material.mtl
usemtl material_0
v -2.09582090 -1.55232894 2.93224502
v -2.09588909 -1.55232799 2.96178889
v -2.14739203 -1.55223203 2.96166992
v -2.09582090 -1.55232894 2.93224502
v -2.14739203 -1.55223203 2.96166992
v -2.14732409 -1.55223298 2.93212605
v -2.09555793 -1.40952206 2.93224502
v -2.14706111 -1.40942705 2.93212605
v -2.14712906 -1.40942705 2.96166992
v -2.09555793 -1.40952206 2.93224502
v -2.14712906 -1.40942705 2.96166992
v -2.09562612 -1.40952206 2.96178889
v -2.14423299 -1.55223799 1.59743798
v -2.14396906 -1.40943301 1.59743798
v -2.14390111 -1.40943301 1.56789398
v -2.14423299 -1.55223799 1.59743798
v -2.14390111 -1.40943301 1.56789398
v -2.14416409 -1.55223894 1.56789398
v 2.29086304 -1.56041300 2.94240308
v 2.29112697 -1.41760695 2.94240308
v 2.29105902 -1.41760695 2.97194695
v 2.29086304 -1.56041300 2.94240308
v 2.29105902 -1.41760695 2.97194695
v 2.29079509 -1.56041300 2.97194695
v -2.09588909 -1.55232799 2.96178889
v -2.09562612 -1.40952206 2.96178889
v -2.14712906 -1.40942705 2.96166992
v -2.09588909 -1.55232799 2.96178889
v -2.14712906 -1.40942705 2.96166992
v -2.14739203 -1.55223203 2.96166992
v 2.24252009 -1.56032300 1.57805097
v 2.24278402 -1.41751802 1.57805097
v 2.29428601 -1.41761303 1.57817101
v 2.24252009 -1.56032300 1.57805097
v 2.29428601 -1.41761303 1.57817101
v 2.29402304 -1.56041801 1.57817101
v -2.14416409 -1.55223894 1.56789398
v -2.14390111 -1.40943301 1.56789398
v -2.09239793 -1.40952897 1.56801295
v -2.14416409 -1.55223894 1.56789398
v -2.09239793 -1.40952897 1.56801295
v -2.09266210 -1.55233395 1.56801295
v -2.09266210 -1.55233395 1.56801295
v -2.09239793 -1.40952897 1.56801295
v 2.24278402 -1.41751802 1.57805097
v -2.09266210 -1.55233395 1.56801295
v 2.24278402 -1.41751802 1.57805097
v 2.24252009 -1.56032300 1.57805097
v 2.29079509 -1.56041300 2.97194695
v 2.29105902 -1.41760695 2.97194695
v 2.23955488 -1.41751206 2.97182798
v 2.29079509 -1.56041300 2.97194695
v 2.23955488 -1.41751206 2.97182798
v 2.23929191 -1.56031799 2.97182798
v 2.23929191 -1.56031799 2.97182798
v 2.23955488 -1.41751206 2.97182798
v -2.09562612 -1.40952206 2.96178889
v 2.23929191 -1.56031799 2.97182798
v -2.09562612 -1.40952206 2.96178889
v -2.09588909 -1.55232799 2.96178889
v 2.29112697 -1.41760695 2.94240308
v 2.23962402 -1.41751206 2.94228411
v 2.23955488 -1.41751206 2.97182798
v 2.29112697 -1.41760695 2.94240308
v 2.23955488 -1.41751206 2.97182798
v 2.29105902 -1.41760695 2.97194695
v 2.23962402 -1.41751206 2.94228411
v -2.09555793 -1.40952206 2.93224502
v -2.09562612 -1.40952206 2.96178889
v 2.23962402 -1.41751206 2.94228411
v -2.09562612 -1.40952206 2.96178889
v 2.23955488 -1.41751206 2.97182798
v 2.29086304 -1.56041300 2.94240308
v 2.29079509 -1.56041300 2.97194695
v 2.23929191 -1.56031799 2.97182798
v 2.29086304 -1.56041300 2.94240308
v 2.23929191 -1.56031799 2.97182798
v 2.23936105 -1.56031799 2.94228411
v 2.23936105 -1.56031799 2.94228411
v 2.23929191 -1.56031799 2.97182798
v -2.09588909 -1.55232799 2.96178889
v 2.23936105 -1.56031799 2.94228411
v -2.09588909 -1.55232799 2.96178889
v -2.09582090 -1.55232894 2.93224502
v 2.24252009 -1.56032300 1.57805097
v 2.24245095 -1.56032300 1.60759497
v -2.09273100 -1.55233395 1.59755695
v 2.24252009 -1.56032300 1.57805097
v -2.09273100 -1.55233395 1.59755695
v -2.09266210 -1.55233395 1.56801295
v 2.24245095 -1.56032300 1.60759497
v 2.23936105 -1.56031799 2.94228411
v -2.09582090 -1.55232894 2.93224502
v 2.24245095 -1.56032300 1.60759497
v -2.09582090 -1.55232894 2.93224502
v -2.09273100 -1.55233395 1.59755695
v 2.29402304 -1.56041801 1.57817101
v 2.29395509 -1.56041801 1.60771501
v 2.24245095 -1.56032300 1.60759497
v 2.29402304 -1.56041801 1.57817101
v 2.24245095 -1.56032300 1.60759497
v 2.24252009 -1.56032300 1.57805097
v 2.29395509 -1.56041801 1.60771501
v 2.29086304 -1.56041300 2.94240308
v 2.23936105 -1.56031799 2.94228411
v 2.29395509 -1.56041801 1.60771501
v 2.23936105 -1.56031799 2.94228411
v 2.24245095 -1.56032300 1.60759497
v 2.24278402 -1.41751802 1.57805097
v -2.09239793 -1.40952897 1.56801295
v -2.09246612 -1.40952802 1.59755695
v 2.24278402 -1.41751802 1.57805097
v -2.09246612 -1.40952802 1.59755695
v 2.24271488 -1.41751802 1.60759497
v 2.23962402 -1.41751206 2.94228411
v 2.24572706 1.89369595 2.94228411
v 2.15932894 1.77176797 2.94208503
v 2.23962402 -1.41751206 2.94228411
v 2.15932894 1.77176797 2.94208503
v 2.15367699 -1.29526603 2.94208503
v 2.29428601 -1.41761303 1.57817101
v 2.24278402 -1.41751802 1.57805097
v 2.24271488 -1.41751802 1.60759497
v 2.29428601 -1.41761303 1.57817101
v 2.24271488 -1.41751802 1.60759497
v 2.29421806 -1.41761196 1.60771501
v 2.29421806 -1.41761196 1.60771501
v 2.24271488 -1.41751802 1.60759497
v 2.23962402 -1.41751206 2.94228411
v 2.29421806 -1.41761196 1.60771501
v 2.23962402 -1.41751206 2.94228411
v 2.29112697 -1.41760695 2.94240308
v 2.29402304 -1.56041801 1.57817101
v 2.29428601 -1.41761303 1.57817101
v 2.29421806 -1.41761196 1.60771501
v 2.29402304 -1.56041801 1.57817101
v 2.29421806 -1.41761196 1.60771501
v 2.29395509 -1.56041801 1.60771501
v 2.29395509 -1.56041801 1.60771501
v 2.29421806 -1.41761196 1.60771501
v 2.29112697 -1.41760695 2.94240308
v 2.29395509 -1.56041801 1.60771501
v 2.29112697 -1.41760695 2.94240308
v 2.29086304 -1.56041300 2.94240308
v -2.14739203 -1.55223203 2.96166992
v -2.14712906 -1.40942705 2.96166992
v -2.14706111 -1.40942705 2.93212605
v -2.14739203 -1.55223203 2.96166992
v -2.14706111 -1.40942705 2.93212605
v -2.14732409 -1.55223298 2.93212605
v -2.14732409 -1.55223298 2.93212605
v -2.14706111 -1.40942705 2.93212605
v -2.14396906 -1.40943301 1.59743798
v -2.14732409 -1.55223298 2.93212605
v -2.14396906 -1.40943301 1.59743798
v -2.14423299 -1.55223799 1.59743798
v -2.09239793 -1.40952897 1.56801295
v -2.14390111 -1.40943301 1.56789398
v -2.14396906 -1.40943301 1.59743798
v -2.09239793 -1.40952897 1.56801295
v -2.14396906 -1.40943301 1.59743798
v -2.09246612 -1.40952802 1.59755695
v -2.09246612 -1.40952802 1.59755695
v -2.14396906 -1.40943301 1.59743798
v -2.14706111 -1.40942705 2.93212605
v -2.09246612 -1.40952802 1.59755695
v -2.14706111 -1.40942705 2.93212605
v -2.09555793 -1.40952206 2.93224502
v -2.09266210 -1.55233395 1.56801295
v -2.09273100 -1.55233395 1.59755695
v -2.14423299 -1.55223799 1.59743798
v -2.09266210 -1.55233395 1.56801295
v -2.14423299 -1.55223799 1.59743798
v -2.14416409 -1.55223894 1.56789398
v -2.09273100 -1.55233395 1.59755695
v -2.09582090 -1.55232894 2.93224502
v -2.14732409 -1.55223298 2.93212605
v -2.09273100 -1.55233395 1.59755695
v -2.14732409 -1.55223298 2.93212605
v -2.14423299 -1.55223799 1.59743798
v 2.24881697 1.89368999 1.60759497
v -2.08636403 1.90167904 1.59755695
v -2.08945608 1.90168500 2.93224502
v 2.24881697 1.89368999 1.60759497
v -2.08945608 1.90168500 2.93224502
v 2.24572706 1.89369595 2.94228411
v -2.09246612 -1.40952802 1.59755695
v -2.09555793 -1.40952206 2.93224502
v -2.08945608 1.90168500 2.93224502
v -2.09246612 -1.40952802 1.59755695
v -2.08945608 1.90168500 2.93224502
v -2.08636403 1.90167904 1.59755695
v 2.24271488 -1.41751802 1.60759497
v -2.09246612 -1.40952802 1.59755695
v -2.08636403 1.90167904 1.59755695
v 2.24271488 -1.41751802 1.60759497
v -2.08636403 1.90167904 1.59755695
v 2.24881697 1.89368999 1.60759497
v 2.23962402 -1.41751206 2.94228411
v 2.24271488 -1.41751802 1.60759497
v 2.24881697 1.89368999 1.60759497
v 2.23962402 -1.41751206 2.94228411
v 2.24881697 1.89368999 1.60759497
v 2.24572706 1.89369595 2.94228411
v 2.15367699 -1.29526603 2.94208503
v 2.15932894 1.77176797 2.94208503
v 2.16204500 1.77176297 1.76932704
v 2.15367699 -1.29526603 2.94208503
v 2.16204500 1.77176297 1.76932704
v 2.15639305 -1.29527104 1.76932704
v -2.08945608 1.90168500 2.93224502
v -2.09555793 -1.40952206 2.93224502
v -2.00916100 -1.28759396 2.93244505
v -2.08945608 1.90168500 2.93224502
v -2.00916100 -1.28759396 2.93244505
v -2.00350809 1.77943897 2.93244505
v -2.09555793 -1.40952206 2.93224502
v 2.23962402 -1.41751206 2.94228411
v 2.15367699 -1.29526603 2.94208503
v -2.09555793 -1.40952206 2.93224502
v 2.15367699 -1.29526603 2.94208503
v -2.00916100 -1.28759396 2.93244505
v 2.24572706 1.89369595 2.94228411
v -2.08945608 1.90168500 2.93224502
v -2.00350809 1.77943897 2.93244505
v 2.24572706 1.89369595 2.94228411
v -2.00350809 1.77943897 2.93244505
v 2.15932894 1.77176797 2.94208503
v -2.00644493 -1.28759897 1.75968802
v 2.15639305 -1.29527104 1.76932704
v 2.16204500 1.77176297 1.76932704
v -2.00644493 -1.28759897 1.75968802
v 2.16204500 1.77176297 1.76932704
v -2.00079298 1.77943397 1.75968802
v -2.00350809 1.77943897 2.93244505
v -2.00916100 -1.28759396 2.93244505
v -2.00644493 -1.28759897 1.75968802
v -2.00350809 1.77943897 2.93244505
v -2.00644493 -1.28759897 1.75968802
v -2.00079298 1.77943397 1.75968802
v 2.15932894 1.77176797 2.94208503
v -2.00350809 1.77943897 2.93244505
v -2.00079298 1.77943397 1.75968802
v 2.15932894 1.77176797 2.94208503
v -2.00079298 1.77943397 1.75968802
v 2.16204500 1.77176297 1.76932704
v -2.00916100 -1.28759396 2.93244505
v 2.15367699 -1.29526603 2.94208503
v 2.15639305 -1.29527104 1.76932704
v -2.00916100 -1.28759396 2.93244505
v 2.15639305 -1.29527104 1.76932704
v -2.00644493 -1.28759897 1.75968802
vt 0.00126400 0.02119600
vt 0.00126400 0.00000000
vt 0.00000000 0.00000000
vt 0.00126400 0.02119600
vt 0.00000000 0.00000000
vt 0.00000000 0.02119600
vt 0.21658500 0.02119600
vt 0.21784900 0.02119600
vt 0.21784900 0.00000000
vt 0.21658500 0.02119600
vt 0.21784900 0.00000000
vt 0.21658500 0.00000000
vt 1.00000000 0.97880298
vt 0.99588299 0.97880298
vt 0.99588299 1.00000000
vt 1.00000000 0.97880298
vt 0.99588299 1.00000000
vt 1.00000000 1.00000000
vt 0.99588299 0.97880298
vt 0.99176699 0.97880399
vt 0.99176699 1.00000000
vt 0.99588299 0.97880298
vt 0.99176699 1.00000000
vt 0.99588299 1.00000000
vt 0.89631402 0.77184403
vt 0.90043002 0.77184403
vt 0.90043002 0.77116197
vt 0.89631402 0.77184403
vt 0.90043002 0.77116197
vt 0.89631402 0.77116197
vt 0.89631402 0.71303999
vt 0.90043002 0.71303999
vt 0.90043002 0.71235800
vt 0.89631402 0.71303999
vt 0.90043002 0.71235800
vt 0.89631402 0.71235800
vt 0.89631402 0.77116197
vt 0.90043002 0.77116197
vt 0.90043002 0.77047902
vt 0.89631402 0.77116197
vt 0.90043002 0.77047902
vt 0.89631402 0.77047902
vt 0.89631402 0.77047902
vt 0.90043002 0.77047902
vt 0.90043002 0.71303999
vt 0.89631402 0.77047902
vt 0.90043002 0.71303999
vt 0.89631402 0.71303999
vt 0.89631402 0.82996601
vt 0.90043002 0.82996601
vt 0.90043002 0.82928300
vt 0.89631402 0.82996601
vt 0.90043002 0.82928300
vt 0.89631402 0.82928300
vt 0.89631402 0.82928300
vt 0.90043002 0.82928300
vt 0.90043002 0.77184403
vt 0.89631402 0.82928300
vt 0.90043002 0.77184403
vt 0.89631402 0.77184403
vt 0.10892500 0.02119600
vt 0.11018900 0.02119600
vt 0.11018900 0.00000000
vt 0.10892500 0.02119600
vt 0.11018900 0.00000000
vt 0.10892500 0.00000000
vt 0.11018900 0.02119600
vt 0.21658500 0.02119600
vt 0.21658500 0.00000000
vt 0.11018900 0.02119600
vt 0.21658500 0.00000000
vt 0.11018900 0.00000000
vt 0.10892500 0.02119600
vt 0.10892500 0.00000000
vt 0.10766100 0.00000000
vt 0.10892500 0.02119600
vt 0.10766100 0.00000000
vt 0.10766100 0.02119700
vt 0.10766100 0.02119700
vt 0.10766100 0.00000000
vt 0.00126400 0.00000000
vt 0.10766100 0.02119700
vt 0.00126400 0.00000000
vt 0.00126400 0.02119600
vt 0.10766000 1.00000000
vt 0.10766000 0.97880298
vt 0.00126400 0.97880298
vt 0.10766000 1.00000000
vt 0.00126400 0.97880298
vt 0.00126400 1.00000000
vt 0.10766000 0.97880298
vt 0.10766100 0.02119700
vt 0.00126400 0.02119600
vt 0.10766000 0.97880298
vt 0.00126400 0.02119600
vt 0.00126400 0.97880298
vt 0.10892400 1.00000000
vt 0.10892400 0.97880298
vt 0.10766000 0.97880298
vt 0.10892400 1.00000000
vt 0.10766000 0.97880298
vt 0.10766000 1.00000000
vt 0.10892400 0.97880298
vt 0.10892500 0.02119600
vt 0.10766100 0.02119700
vt 0.10892400 0.97880298
vt 0.10766100 0.02119700
vt 0.10766000 0.97880298
vt 0.11018900 1.00000000
vt 0.21658500 1.00000000
vt 0.21658500 0.97880298
vt 0.11018900 1.00000000
vt 0.21658500 0.97880298
vt 0.11018900 0.97880298
vt 0.99176699 0.94256097
vt 0.89631402 0.94256097
vt 0.89983302 0.94370198
vt 0.99176699 0.94256097
vt 0.89983302 0.94370198
vt 0.98824698 0.94370198
vt 0.10892400 1.00000000
vt 0.11018900 1.00000000
vt 0.11018900 0.97880298
vt 0.10892400 1.00000000
vt 0.11018900 0.97880298
vt 0.10892400 0.97880298
vt 0.10892400 0.97880298
vt 0.11018900 0.97880298
vt 0.11018900 0.02119600
vt 0.10892400 0.97880298
vt 0.11018900 0.02119600
vt 0.10892500 0.02119600
vt 0.99588299 0.00000000
vt 0.99176699 0.00000000
vt 0.99176699 0.02119700
vt 0.99588299 0.00000000
vt 0.99176699 0.02119700
vt 0.99588299 0.02119700
vt 0.99588299 0.02119700
vt 0.99176699 0.02119700
vt 0.99176699 0.97880399
vt 0.99588299 0.02119700
vt 0.99176699 0.97880399
vt 0.99588299 0.97880298
vt 1.00000000 0.00000000
vt 0.99588299 0.00000000
vt 0.99588299 0.02119700
vt 1.00000000 0.00000000
vt 0.99588299 0.02119700
vt 1.00000000 0.02119600
vt 1.00000000 0.02119600
vt 0.99588299 0.02119700
vt 0.99588299 0.97880298
vt 1.00000000 0.02119600
vt 0.99588299 0.97880298
vt 1.00000000 0.97880298
vt 0.21658500 1.00000000
vt 0.21784900 1.00000000
vt 0.21784900 0.97880298
vt 0.21658500 1.00000000
vt 0.21784900 0.97880298
vt 0.21658500 0.97880298
vt 0.21658500 0.97880298
vt 0.21784900 0.97880298
vt 0.21784900 0.02119600
vt 0.21658500 0.97880298
vt 0.21784900 0.02119600
vt 0.21658500 0.02119600
vt 0.00126400 1.00000000
vt 0.00126400 0.97880298
vt 0.00000000 0.97880298
vt 0.00126400 1.00000000
vt 0.00000000 0.97880298
vt 0.00000000 1.00000000
vt 0.00126400 0.97880298
vt 0.00126400 0.02119600
vt 0.00000000 0.02119600
vt 0.00126400 0.97880298
vt 0.00000000 0.02119600
vt 0.00000000 0.97880298
vt 0.21784900 1.00000000
vt 0.32424599 1.00000000
vt 0.32424599 0.04239300
vt 0.21784900 1.00000000
vt 0.32424599 0.04239300
vt 0.21784900 0.04239300
vt 0.32424599 0.04239300
vt 0.32424599 1.00000000
vt 0.41969901 1.00000000
vt 0.32424599 0.04239300
vt 0.41969901 1.00000000
vt 0.41969901 0.04239300
vt 0.99176699 0.94256097
vt 0.99176598 0.88512099
vt 0.89631402 0.88512099
vt 0.99176699 0.94256097
vt 0.89631402 0.88512099
vt 0.89631402 0.94256097
vt 0.51515198 1.00000000
vt 0.51515198 0.04239300
vt 0.41969901 0.04239300
vt 0.51515198 1.00000000
vt 0.41969901 0.04239300
vt 0.41969901 1.00000000
vt 0.71948498 1.00000000
vt 0.80789900 1.00000000
vt 0.80789900 0.15857500
vt 0.71948498 1.00000000
vt 0.80789900 0.15857500
vt 0.71948600 0.15857500
vt 0.89631402 1.00000000
vt 0.99176699 1.00000000
vt 0.98824698 0.99885798
vt 0.89631402 1.00000000
vt 0.98824698 0.99885798
vt 0.89983302 0.99885798
vt 0.99176699 1.00000000
vt 0.99176699 0.94256097
vt 0.98824698 0.94370198
vt 0.99176699 1.00000000
vt 0.98824698 0.94370198
vt 0.98824698 0.99885798
vt 0.89631402 0.94256097
vt 0.89631402 1.00000000
vt 0.89983302 0.99885798
vt 0.89631402 0.94256097
vt 0.89983302 0.99885798
vt 0.89983302 0.94370198
vt 0.89631402 0.82996601
vt 0.89631402 0.88512099
vt 0.98472798 0.88512099
vt 0.89631402 0.82996601
vt 0.98472798 0.88512099
vt 0.98472798 0.82996601
vt 0.80789900 1.00000000
vt 0.89631402 1.00000000
vt 0.89631301 0.15857500
vt 0.80789900 1.00000000
vt 0.89631301 0.15857500
vt 0.80789900 0.15857500
vt 0.71948600 0.15857500
vt 0.61731899 0.15857500
vt 0.61731899 1.00000000
vt 0.71948600 0.15857500
vt 0.61731899 1.00000000
vt 0.71948498 1.00000000
vt 0.51515198 1.00000000
vt 0.61731899 1.00000000
vt 0.61731899 0.15857500
vt 0.51515198 1.00000000
vt 0.61731899 0.15857500
vt 0.51515198 0.15857500
f 1/1 2/2 3/3
f 4/4 5/5 6/6
f 7/7 8/8 9/9
f 10/10 11/11 12/12
f 13/13 14/14 15/15
f 16/16 17/17 18/18
f 19/19 20/20 21/21
f 22/22 23/23 24/24
f 25/25 26/26 27/27
f 28/28 29/29 30/30
f 31/31 32/32 33/33
f 34/34 35/35 36/36
f 37/37 38/38 39/39
f 40/40 41/41 42/42
f 43/43 44/44 45/45
f 46/46 47/47 48/48
f 49/49 50/50 51/51
f 52/52 53/53 54/54
f 55/55 56/56 57/57
f 58/58 59/59 60/60
f 61/61 62/62 63/63
f 64/64 65/65 66/66
f 67/67 68/68 69/69
f 70/70 71/71 72/72
f 73/73 74/74 75/75
f 76/76 77/77 78/78
f 79/79 80/80 81/81
f 82/82 83/83 84/84
f 85/85 86/86 87/87
f 88/88 89/89 90/90
f 91/91 92/92 93/93
f 94/94 95/95 96/96
f 97/97 98/98 99/99
f 100/100 101/101 102/102
f 103/103 104/104 105/105
f 106/106 107/107 108/108
f 109/109 110/110 111/111
f 112/112 113/113 114/114
f 115/115 116/116 117/117
f 118/118 119/119 120/120
f 121/121 122/122 123/123
f 124/124 125/125 126/126
f 127/127 128/128 129/129
f 130/130 131/131 132/132
f 133/133 134/134 135/135
f 136/136 137/137 138/138
f 139/139 140/140 141/141
f 142/142 143/143 144/144
f 145/145 146/146 147/147
f 148/148 149/149 150/150
f 151/151 152/152 153/153
f 154/154 155/155 156/156
f 157/157 158/158 159/159
f 160/160 161/161 162/162
f 163/163 164/164 165/165
f 166/166 167/167 168/168
f 169/169 170/170 171/171
f 172/172 173/173 174/174
f 175/175 176/176 177/177
f 178/178 179/179 180/180
f 181/181 182/182 183/183
f 184/184 185/185 186/186
f 187/187 188/188 189/189
f 190/190 191/191 192/192
f 193/193 194/194 195/195
f 196/196 197/197 198/198
f 199/199 200/200 201/201
f 202/202 203/203 204/204
f 205/205 206/206 207/207
f 208/208 209/209 210/210
f 211/211 212/212 213/213
f 214/214 215/215 216/216
f 217/217 218/218 219/219
f 220/220 221/221 222/222
f 223/223 224/224 225/225
f 226/226 227/227 228/228
f 229/229 230/230 231/231
f 232/232 233/233 234/234
f 235/235 236/236 237/237
f 238/238 239/239 240/240
f 241/241 242/242 243/243
f 244/244 245/245 246/246
f 247/247 248/248 249/249
f 250/250 251/251 252/252

